<?xml version="1.0" encoding="UTF-8"?>
<svg xmlns="http://www.w3.org/2000/svg" xmlns:xlink="http://www.w3.org/1999/xlink" width="375pt" height="374.999991pt" viewBox="0 0 375 374.999991" version="1.2">
<g id="surface1">
<rect x="0" y="0" width="375" height="374.999991" style="fill:rgb(100%,100%,100%);fill-opacity:1;stroke:none;"/>
<rect x="0" y="0" width="375" height="374.999991" style="fill:rgb(100%,100%,100%);fill-opacity:1;stroke:none;"/>
<path style=" stroke:none;fill-rule:nonzero;fill:rgb(0%,0%,0%);fill-opacity:1;" d="M 362.902344 104.523438 L 349.863281 108.871094 L 349.128906 112.226562 C 347.285156 120.636719 343.976562 128.621094 339.277344 135.945312 L 337.410156 138.851562 L 343.578125 151.1875 L 332.636719 162.125 L 320.28125 155.933594 L 317.398438 157.824219 C 310.074219 162.527344 302.089844 165.835938 293.675781 167.652344 L 290.324219 168.410156 L 285.976562 181.453125 L 270.476562 181.453125 L 266.128906 168.410156 L 262.773438 167.652344 C 254.363281 165.835938 246.378906 162.527344 239.054688 157.824219 L 236.171875 155.933594 L 223.8125 162.125 L 212.875 151.1875 L 219.042969 138.851562 L 217.175781 135.945312 C 212.472656 128.621094 209.164062 120.636719 207.324219 112.226562 L 206.589844 108.871094 L 193.546875 104.523438 L 193.546875 89.023438 L 206.589844 84.675781 L 207.324219 81.324219 C 209.164062 72.910156 212.472656 64.925781 217.175781 57.601562 L 219.042969 54.695312 L 212.875 42.363281 L 223.8125 31.421875 L 236.171875 37.613281 L 239.054688 35.722656 C 246.378906 31.023438 254.363281 27.714844 262.773438 25.894531 L 266.128906 25.136719 L 270.476562 12.097656 L 285.976562 12.097656 L 290.324219 25.136719 L 293.675781 25.894531 C 302.089844 27.714844 310.074219 31.023438 317.398438 35.722656 L 320.28125 37.613281 L 332.636719 31.421875 L 343.578125 42.363281 L 337.410156 54.695312 L 339.277344 57.601562 C 343.976562 64.925781 347.285156 72.910156 349.128906 81.324219 L 349.863281 84.675781 L 362.902344 89.023438 Z M 362.902344 290.324219 L 12.097656 290.324219 L 12.097656 127.015625 C 12.097656 117 20.222656 108.871094 30.242188 108.871094 L 181.453125 108.871094 L 181.453125 113.21875 L 196.3125 118.179688 C 198.273438 125.667969 201.25 132.804688 205.195312 139.515625 L 198.15625 153.574219 L 221.425781 176.84375 L 235.484375 169.804688 C 242.195312 173.75 249.332031 176.726562 256.820312 178.664062 L 261.78125 193.546875 L 294.667969 193.546875 L 299.632812 178.664062 C 307.121094 176.726562 314.257812 173.75 320.964844 169.804688 L 335.023438 176.84375 L 358.296875 153.574219 L 351.253906 139.515625 C 355.199219 132.804688 358.179688 125.667969 360.140625 118.179688 L 362.902344 117.257812 Z M 344.757812 326.613281 L 30.242188 326.613281 C 20.222656 326.613281 12.097656 318.484375 12.097656 308.46875 L 12.097656 302.417969 L 362.902344 302.417969 L 362.902344 308.46875 C 362.902344 318.484375 354.777344 326.613281 344.757812 326.613281 Z M 254.03125 362.902344 L 120.96875 362.902344 L 120.96875 338.710938 L 254.03125 338.710938 Z M 360.140625 75.367188 C 358.179688 67.878906 355.199219 60.742188 351.253906 54.035156 L 358.296875 39.976562 L 335.023438 16.703125 L 320.964844 23.746094 C 314.257812 19.800781 307.121094 16.820312 299.632812 14.882812 L 294.667969 0 L 261.78125 0 L 256.820312 14.882812 C 249.332031 16.820312 242.195312 19.800781 235.484375 23.746094 L 221.425781 16.703125 L 198.15625 39.976562 L 205.195312 54.035156 C 201.25 60.742188 198.273438 67.878906 196.3125 75.367188 L 181.453125 80.332031 L 181.453125 96.773438 L 30.242188 96.773438 C 13.5625 96.773438 0 110.335938 0 127.015625 L 0 308.46875 C 0 325.148438 13.5625 338.710938 30.242188 338.710938 L 108.871094 338.710938 L 108.871094 362.902344 L 84.675781 362.902344 L 84.675781 375 L 290.324219 375 L 290.324219 362.902344 L 266.128906 362.902344 L 266.128906 338.710938 L 344.757812 338.710938 C 361.4375 338.710938 375 325.148438 375 308.46875 L 375 80.332031 L 360.140625 75.367188 "/>
<path style=" stroke:none;fill-rule:nonzero;fill:rgb(0%,0%,0%);fill-opacity:1;" d="M 278.226562 145.160156 C 251.550781 145.160156 229.839844 123.449219 229.839844 96.773438 C 229.839844 70.101562 251.550781 48.386719 278.226562 48.386719 C 304.898438 48.386719 326.613281 70.101562 326.613281 96.773438 C 326.613281 123.449219 304.898438 145.160156 278.226562 145.160156 Z M 278.226562 36.289062 C 244.863281 36.289062 217.742188 63.414062 217.742188 96.773438 C 217.742188 130.136719 244.863281 157.257812 278.226562 157.257812 C 311.585938 157.257812 338.710938 130.136719 338.710938 96.773438 C 338.710938 63.414062 311.585938 36.289062 278.226562 36.289062 "/>
<path style=" stroke:none;fill-rule:nonzero;fill:rgb(0%,0%,0%);fill-opacity:1;" d="M 278.226562 108.871094 C 271.5625 108.871094 266.128906 103.4375 266.128906 96.773438 C 266.128906 90.113281 271.5625 84.675781 278.226562 84.675781 C 284.886719 84.675781 290.324219 90.113281 290.324219 96.773438 C 290.324219 103.4375 284.886719 108.871094 278.226562 108.871094 Z M 278.226562 72.582031 C 264.875 72.582031 254.03125 83.425781 254.03125 96.773438 C 254.03125 110.125 264.875 120.96875 278.226562 120.96875 C 291.574219 120.96875 302.417969 110.125 302.417969 96.773438 C 302.417969 83.425781 291.574219 72.582031 278.226562 72.582031 "/>
<path style=" stroke:none;fill-rule:nonzero;fill:rgb(0%,0%,0%);fill-opacity:1;" d="M 36.289062 145.160156 L 36.289062 151.210938 C 36.289062 157.871094 30.855469 163.304688 24.195312 163.304688 L 24.195312 175.402344 C 30.855469 175.402344 36.289062 180.835938 36.289062 187.5 L 36.289062 193.546875 C 36.289062 203.566406 44.417969 211.695312 54.433594 211.695312 L 60.484375 211.695312 L 60.484375 199.597656 L 54.433594 199.597656 C 51.105469 199.597656 48.386719 196.878906 48.386719 193.546875 L 48.386719 187.5 C 48.386719 180.269531 45.222656 173.796875 40.1875 169.355469 C 45.222656 164.914062 48.386719 158.4375 48.386719 151.210938 L 48.386719 145.160156 C 48.386719 141.828125 51.105469 139.113281 54.433594 139.113281 L 60.484375 139.113281 L 60.484375 127.015625 L 54.433594 127.015625 C 44.417969 127.015625 36.289062 135.144531 36.289062 145.160156 "/>
<path style=" stroke:none;fill-rule:nonzero;fill:rgb(0%,0%,0%);fill-opacity:1;" d="M 223.789062 205.644531 L 223.789062 199.597656 C 223.789062 189.578125 215.664062 181.453125 205.644531 181.453125 L 199.597656 181.453125 L 199.597656 193.546875 L 205.644531 193.546875 C 208.976562 193.546875 211.695312 196.265625 211.695312 199.597656 L 211.695312 205.644531 C 211.695312 212.875 214.882812 219.347656 219.890625 223.789062 C 214.882812 228.230469 211.695312 234.707031 211.695312 241.933594 L 211.695312 247.984375 C 211.695312 251.316406 208.976562 254.03125 205.644531 254.03125 L 199.597656 254.03125 L 199.597656 266.128906 L 205.644531 266.128906 C 215.664062 266.128906 223.789062 258 223.789062 247.984375 L 223.789062 241.933594 C 223.789062 235.273438 229.222656 229.839844 235.886719 229.839844 L 235.886719 217.742188 C 229.222656 217.742188 223.789062 212.308594 223.789062 205.644531 "/>
<path style=" stroke:none;fill-rule:nonzero;fill:rgb(0%,0%,0%);fill-opacity:1;" d="M 72.582031 145.160156 L 187.5 145.160156 L 187.5 133.066406 L 72.582031 133.066406 L 72.582031 145.160156 "/>
<path style=" stroke:none;fill-rule:nonzero;fill:rgb(0%,0%,0%);fill-opacity:1;" d="M 96.773438 169.355469 L 187.5 169.355469 L 187.5 157.257812 L 96.773438 157.257812 L 96.773438 169.355469 "/>
<path style=" stroke:none;fill-rule:nonzero;fill:rgb(0%,0%,0%);fill-opacity:1;" d="M 84.675781 157.257812 L 72.582031 157.257812 L 72.582031 169.355469 L 84.675781 169.355469 L 84.675781 157.257812 "/>
<path style=" stroke:none;fill-rule:nonzero;fill:rgb(0%,0%,0%);fill-opacity:1;" d="M 72.582031 193.546875 L 187.5 193.546875 L 187.5 181.453125 L 72.582031 181.453125 L 72.582031 193.546875 "/>
<path style=" stroke:none;fill-rule:nonzero;fill:rgb(0%,0%,0%);fill-opacity:1;" d="M 72.582031 217.742188 L 187.5 217.742188 L 187.5 205.644531 L 72.582031 205.644531 L 72.582031 217.742188 "/>
<path style=" stroke:none;fill-rule:nonzero;fill:rgb(0%,0%,0%);fill-opacity:1;" d="M 175.402344 241.933594 L 187.5 241.933594 L 187.5 229.839844 L 175.402344 229.839844 L 175.402344 241.933594 "/>
<path style=" stroke:none;fill-rule:nonzero;fill:rgb(0%,0%,0%);fill-opacity:1;" d="M 163.304688 229.839844 L 72.582031 229.839844 L 72.582031 241.933594 L 163.304688 241.933594 L 163.304688 229.839844 "/>
<path style=" stroke:none;fill-rule:nonzero;fill:rgb(0%,0%,0%);fill-opacity:1;" d="M 72.582031 266.128906 L 187.5 266.128906 L 187.5 254.03125 L 72.582031 254.03125 L 72.582031 266.128906 "/>
</g>
</svg>
